Coordinates
version=1
nRows=8
nColumns=40
inDegrees=yes

Units are S.I. units (second, meters, Newtons, ...)
If the header above contains a line with 'inDegrees', this indicates whether rotational values are in degrees (yes) or radians (no).

endheader
time	pelvis_tilt	pelvis_list	pelvis_rotation	pelvis_tx	pelvis_ty	pelvis_tz	hip_flexion_r	hip_adduction_r	hip_rotation_r	knee_angle_r	knee_angle_r_beta	ankle_angle_r	subtalar_angle_r	mtp_angle_r	hip_flexion_l	hip_adduction_l	hip_rotation_l	knee_angle_l	knee_angle_l_beta	ankle_angle_l	subtalar_angle_l	mtp_angle_l	lumbar_extension	lumbar_bending	lumbar_rotation	arm_flex_r	arm_add_r	arm_rot_r	elbow_flex_r	pro_sup_r	wrist_flex_r	wrist_dev_r	arm_flex_l	arm_add_l	arm_rot_l	elbow_flex_l	pro_sup_l	wrist_flex_l	wrist_dev_l
      1.98500000	    -19.46781672	      2.16025020	     -5.58219853	      0.14942769	      0.78218572	     -1.17998870	     55.51234022	    -32.03225660	    -16.88818928	     54.77473581	      0.95599949	      8.40197029	      3.69674322	      0.00000000	     48.41185867	    -38.99225144	    -30.20061963	     54.48810566	      0.95099685	      8.89825694	     12.95529150	      0.00000000	     -8.13143211	     -0.54837571	      3.62111735	     44.99948623	    -15.00000323	     44.99948623	     75.00017585	     45.00000026	      0.00000000	      0.00000000	     44.99948623	    -15.00000323	     44.99948623	     75.00017585	     45.00000026	      0.00000000	      0.00000000
      1.99000000	    -19.32180545	      2.26121291	     -5.52280896	      0.15068625	      0.78697698	     -1.18024275	     54.49114804	    -31.88655337	    -17.29012693	     53.48435556	      0.93347810	      7.90810143	      3.70581842	      0.00000000	     47.31561908	    -38.39505363	    -30.88772591	     53.18322924	      0.92822246	      8.42555749	     12.97904243	      0.00000000	     -8.02799167	     -0.61894810	      3.52999845	     44.99948719	    -15.00000321	     44.99948719	     75.00017585	     45.00000026	      0.00000000	      0.00000000	     44.99948719	    -15.00000321	     44.99948719	     75.00017585	     45.00000026	      0.00000000	      0.00000000
      1.99500000	    -19.10021485	      2.36227626	     -5.46360262	      0.15210763	      0.79186044	     -1.18050468	     53.36860663	    -31.77364386	    -17.74266871	     52.18928224	      0.91087481	      7.45342661	      3.83416240	      0.00000000	     46.10696197	    -37.78963004	    -31.61981843	     51.84643472	      0.90489099	      7.96801136	     13.11467673	      0.00000000	     -8.00058318	     -0.70121287	      3.42370897	     44.99948848	    -15.00000320	     44.99948848	     75.00017585	     45.00000026	      0.00000000	      0.00000000	     44.99948848	    -15.00000320	     44.99948848	     75.00017585	     45.00000026	      0.00000000	      0.00000000
      2.00000000	    -19.03181848	      2.44807127	     -5.39778827	      0.15326012	      0.79629717	     -1.18079450	     52.45083063	    -31.58839709	    -18.11479493	     50.89741860	      0.88832754	      6.88586133	      3.70714056	      0.00000000	     45.19218983	    -37.16787446	    -32.14152976	     50.55417127	      0.88233674	      7.45689376	     12.98946319	      0.00000000	     -7.80667028	     -0.74194853	      3.34134484	     44.99948927	    -15.00000319	     44.99948927	     75.00017585	     45.00000026	      0.00000000	      0.00000000	     44.99948927	    -15.00000319	     44.99948927	     75.00017585	     45.00000026	      0.00000000	      0.00000000
      2.00500000	    -18.67731413	      2.53912650	     -5.33024066	      0.15487633	      0.80132600	     -1.18105503	     51.13230867	    -31.49810716	    -18.66843565	     49.53906499	      0.86461979	      6.47463441	      3.90641037	      0.00000000	     43.84946571	    -36.53653064	    -32.84495647	     49.18861636	      0.85850331	      7.01165048	     13.19699584	      0.00000000	     -7.93728158	     -0.85971362	      3.19396053	     44.99949068	    -15.00000317	     44.99949068	     75.00017585	     45.00000026	      0.00000000	      0.00000000	     44.99949068	    -15.00000317	     44.99949068	     75.00017585	     45.00000026	      0.00000000	      0.00000000
      2.01000000	    -18.61677276	      2.60158948	     -5.25769710	      0.15606018	      0.80553845	     -1.18139442	     50.23256631	    -31.29918094	    -19.02717742	     48.28956334	      0.84281187	      5.89744720	      3.82338910	      0.00000000	     42.98511145	    -35.92035936	    -33.32824309	     47.88115093	      0.83568373	      6.49985896	     13.09426869	      0.00000000	     -7.72475007	     -0.84533686	      3.11014892	     44.99949171	    -15.00000316	     44.99949171	     75.00017585	     45.00000026	      0.00000000	      0.00000000	     44.99949171	    -15.00000316	     44.99949171	     75.00017585	     45.00000026	      0.00000000	      0.00000000
      2.01500000	    -18.46204503	      2.67186116	     -5.19235973	      0.15738569	      0.80991467	     -1.18169779	     49.18837872	    -31.11570490	    -19.44499430	     46.96066882	      0.81961829	      5.35132241	      3.80881965	      0.00000000	     41.99033522	    -35.28402463	    -33.81155840	     46.54556027	      0.81237328	      5.98677836	     13.07493527	      0.00000000	     -7.62978113	     -0.89075573	      3.01130782	     44.99949265	    -15.00000315	     44.99949265	     75.00017585	     45.00000026	      0.00000000	      0.00000000	     44.99949265	    -15.00000315	     44.99949265	     75.00017585	     45.00000026	      0.00000000	      0.00000000
      2.02000000	    -18.29244020	      2.73527449	     -5.12895425	      0.15873755	      0.81418918	     -1.18200049	     48.13642868	    -30.92945436	    -19.86519688	     45.64919746	      0.79672880	      4.82325281	      3.81947444	      0.00000000	     40.99473686	    -34.65529213	    -34.28691560	     45.21546913	      0.78915881	      5.48450999	     13.08077587	      0.00000000	     -7.54734011	     -0.92254864	      2.90908904	     44.99949353	    -15.00000314	     44.99949353	     75.00017585	     45.00000026	      0.00000000	      0.00000000	     44.99949353	    -15.00000314	     44.99949353	     75.00017585	     45.00000026	      0.00000000	      0.00000000
